<?xml version="1.0" standalone="no"?>
<!DOCTYPE svg PUBLIC "-//W3C//DTD SVG 20010904//EN"
 "http://www.w3.org/TR/2001/REC-SVG-20010904/DTD/svg10.dtd">
<svg version="1.0" xmlns="http://www.w3.org/2000/svg"
 width="1200.000000pt" height="1200.000000pt" viewBox="0 0 1200.000000 1200.000000"
 preserveAspectRatio="xMidYMid meet">
<metadata>
Created by potrace 1.14, written by Peter Selinger 2001-2017
</metadata>
<g transform="translate(0.000000,1200.000000) scale(0.100000,-0.100000)"
fill="#000000" stroke="none">
<path d="M5235 8594 c-1106 -42 -1971 -182 -2812 -456 -68 -22 -123 -43 -123
-47 0 -4 9 -16 20 -26 48 -44 110 -189 110 -258 0 -35 -9 -37 155 31 159 65
552 202 853 296 789 247 1779 410 2637 434 197 5 233 8 170 13 -93 8 -877 18
-1010 13z"/>
<path d="M1870 8095 c-251 -70 -340 -385 -162 -574 70 -75 145 -106 252 -106
71 0 94 4 141 26 79 37 133 90 171 167 29 59 33 76 33 152 0 72 -4 94 -27 143
-72 152 -249 236 -408 192z"/>
<path d="M1377 7690 c-1098 -610 -1560 -1440 -1230 -2206 379 -878 1738 -1590
3643 -1909 1183 -198 2612 -241 3820 -114 1555 163 2922 601 3875 1243 227
153 465 343 465 372 0 8 -3 14 -6 14 -3 0 -53 -38 -112 -85 -273 -219 -626
-416 -1038 -578 -1055 -416 -2441 -652 -4034 -686 -1943 -42 -3580 228 -4695
774 -770 377 -1224 849 -1341 1395 -26 123 -24 299 5 410 86 329 351 646 804
963 62 43 119 82 127 87 11 6 5 17 -30 52 -79 79 -125 170 -139 279 l-6 49
-108 -60z"/>
<path d="M4291 7574 c-89 -32 -168 -100 -210 -183 -50 -98 -65 -185 -66 -378
l0 -183 -58 0 -58 0 3 -142 3 -143 58 -3 57 -3 0 -704 0 -705 165 0 165 0 0
705 0 705 125 0 c69 0 125 1 125 3 0 2 14 65 30 140 17 76 30 140 30 142 0 3
-70 5 -156 5 l-157 0 5 173 c4 154 6 177 27 220 29 60 66 81 132 75 26 -3 66
-14 89 -25 l41 -21 8 21 c5 12 25 67 45 121 20 54 35 104 33 110 -6 16 -90 56
-150 72 -70 19 -230 17 -286 -2z"/>
<path d="M4980 7477 c-119 -63 -156 -215 -77 -320 125 -166 387 -79 387 128 0
160 -170 266 -310 192z"/>
<path d="M1970 7155 l-155 -20 -3 -1003 -2 -1002 162 2 163 3 3 1014 c1 558
-1 1018 -5 1021 -5 3 -78 -3 -163 -15z"/>
<path d="M7491 6869 c-130 -23 -262 -121 -340 -253 -85 -143 -131 -360 -131
-618 0 -327 60 -555 188 -714 159 -197 438 -248 687 -125 72 36 205 140 205
161 0 5 -28 60 -62 123 l-61 115 -61 -51 c-87 -72 -154 -101 -247 -105 -66 -3
-82 -1 -126 22 -113 57 -172 188 -173 384 l0 82 375 0 375 0 0 144 c0 398 -93
653 -282 772 -87 56 -236 83 -347 63z m150 -279 c93 -26 149 -166 149 -371 l0
-59 -212 0 -211 0 6 98 c17 258 111 375 268 332z"/>
<path d="M8836 6869 c-128 -19 -256 -109 -336 -234 -103 -164 -150 -365 -150
-644 0 -513 163 -830 458 -892 80 -16 223 -7 293 20 208 79 343 303 389 648
18 133 8 451 -18 563 -54 229 -150 385 -291 474 -89 57 -229 83 -345 65z m165
-315 c62 -31 106 -117 130 -254 17 -97 17 -497 0 -605 -32 -201 -101 -305
-205 -305 -115 0 -189 114 -216 333 -19 153 -8 540 18 639 25 93 42 126 82
167 51 50 123 60 191 25z"/>
<path d="M2640 6833 c-74 -19 -138 -38 -142 -41 -4 -4 0 -44 9 -87 14 -69 17
-186 20 -827 l4 -748 165 0 164 0 0 634 0 633 49 46 c74 69 142 100 210 95 62
-6 93 -32 110 -96 7 -24 11 -264 11 -674 l0 -638 165 0 165 0 0 698 c0 755 -2
788 -55 877 -118 202 -430 208 -632 12 -46 -44 -47 -44 -58 33 -9 66 -27 120
-39 119 -6 0 -72 -16 -146 -36z"/>
<path d="M5770 6832 c-74 -19 -137 -37 -139 -38 -2 -2 5 -52 15 -111 16 -97
19 -184 22 -831 l3 -722 162 2 162 3 3 631 2 631 55 52 c64 61 124 90 182 91
59 0 91 -18 116 -64 22 -41 22 -46 25 -693 l3 -653 164 0 165 0 0 663 c0 392
-4 697 -10 747 -25 207 -145 320 -340 320 -115 0 -231 -47 -336 -135 l-50 -43
-12 68 c-14 84 -28 120 -44 119 -7 0 -74 -17 -148 -37z"/>
<path d="M9883 6831 c-73 -20 -135 -39 -137 -42 -3 -3 2 -41 11 -85 14 -68 17
-186 20 -826 l4 -748 165 0 164 0 0 634 0 634 54 50 c66 60 132 92 188 92 56
0 87 -17 112 -60 21 -34 21 -50 24 -692 l3 -658 164 0 165 0 0 688 c0 421 -4
712 -10 752 -29 183 -154 290 -338 290 -123 -1 -257 -57 -341 -144 -43 -44
-51 -45 -51 -6 0 17 -7 60 -16 95 -12 48 -21 65 -33 64 -9 -1 -75 -18 -148
-38z"/>
<path d="M5070 6840 c-69 -10 -133 -19 -143 -19 -16 -1 -17 -46 -15 -843 l3
-843 168 -3 167 -2 0 865 0 865 -27 -1 c-16 -1 -84 -9 -153 -19z"/>
</g>
</svg>
